<?xml version="1.0" standalone="no"?>
<!DOCTYPE svg PUBLIC "-//W3C//DTD SVG 20010904//EN"
 "http://www.w3.org/TR/2001/REC-SVG-20010904/DTD/svg10.dtd">
<svg version="1.0" xmlns="http://www.w3.org/2000/svg"
 width="2048.000000pt" height="2048.000000pt" viewBox="0 0 2048.000000 2048.000000"
 preserveAspectRatio="xMidYMid meet">

<g transform="translate(0.000000,2048.000000) scale(0.100000,-0.100000)"
fill="#000000" stroke="none">
<path d="M11974 15653 c-57 -94 -89 -138 -127 -174 -67 -65 -188 -154 -252
-187 -33 -17 -116 -62 -185 -101 -85 -49 -135 -71 -158 -71 -19 0 -85 24 -155
56 -177 81 -339 127 -515 145 -401 41 -778 4 -1065 -107 -98 -37 -118 -46
-211 -89 -73 -34 -86 -31 -257 64 -230 127 -388 259 -460 382 -43 75 -56 88
-65 66 -15 -40 21 -201 78 -345 15 -40 28 -77 28 -82 0 -5 -19 -8 -42 -6 -51
3 -88 -8 -88 -28 0 -26 115 -241 183 -340 41 -61 67 -109 67 -125 0 -15 -22
-65 -50 -111 -67 -115 -147 -278 -181 -372 -52 -145 -64 -225 -63 -433 2 -197
15 -303 55 -434 10 -35 19 -69 19 -77 0 -7 -35 -46 -77 -86 -176 -167 -262
-269 -371 -440 -173 -273 -261 -489 -317 -778 -40 -208 -50 -307 -49 -495 0
-197 14 -309 64 -512 72 -287 268 -548 491 -652 111 -52 156 -66 307 -98 114
-24 146 -27 322 -26 195 1 195 1 320 38 228 67 353 127 365 173 4 15 1 28 -6
33 -6 4 -9 14 -6 23 8 21 -28 55 -95 91 -21 10 -36 21 -34 23 2 2 -7 15 -20
29 -13 14 -23 28 -22 32 5 18 -39 121 -66 155 -17 22 -36 51 -43 65 -6 14 -12
20 -12 13 -1 -7 -5 -11 -11 -7 -5 3 -7 12 -3 20 3 8 0 15 -6 15 -6 0 -11 12
-11 28 0 18 -3 23 -9 14 -7 -11 -10 -10 -15 3 -3 9 -4 21 0 26 3 5 -2 9 -11 9
-11 0 -15 5 -12 14 4 9 -3 16 -16 20 -12 3 -18 8 -14 12 4 4 2 13 -4 20 -6 8
-9 21 -5 29 3 9 2 13 -4 10 -12 -7 -33 32 -24 47 4 6 3 8 -3 5 -6 -4 -13 2
-16 13 -3 11 -1 20 4 20 13 0 11 23 -6 58 -19 37 -25 66 -25 107 0 17 0 44 0
60 -5 155 -4 205 3 205 10 0 6 62 -6 78 -6 8 -5 12 3 12 9 0 11 11 7 34 -3 19
-1 36 3 38 5 2 19 68 30 148 12 85 26 149 34 155 9 7 13 37 13 97 l0 88 45 47
c29 32 51 47 64 44 10 -2 16 0 12 4 -10 10 10 35 28 35 8 0 23 8 34 18 14 11
38 17 76 17 30 0 58 5 62 11 4 5 20 18 35 28 16 9 26 20 23 23 -9 9 33 35 44
28 6 -3 10 -1 10 4 0 6 6 11 13 11 6 0 26 14 44 30 18 17 38 30 45 30 8 0 18
4 24 9 5 6 34 17 64 25 30 8 73 23 95 34 22 11 44 18 48 15 5 -3 16 2 25 10 9
8 42 18 72 22 30 4 62 11 71 16 9 4 20 5 24 1 3 -4 55 -8 113 -8 125 -2 258
-13 289 -25 12 -4 23 -4 25 1 4 12 100 -21 111 -37 4 -7 20 -13 35 -13 16 0
34 -6 41 -12 6 -7 15 -13 19 -13 4 -1 26 -13 49 -28 24 -15 47 -27 53 -27 5 0
10 -4 10 -10 0 -5 13 -16 30 -25 16 -9 51 -36 77 -60 27 -25 56 -47 66 -51 9
-3 17 -10 17 -15 0 -5 7 -9 15 -9 8 0 15 -5 15 -11 0 -13 30 -44 44 -44 6 -1
10 -6 9 -13 -2 -6 3 -9 11 -6 9 3 16 -4 20 -21 4 -14 17 -30 29 -34 12 -5 31
-19 42 -32 15 -18 16 -20 2 -10 -15 12 -17 12 -11 -2 3 -8 12 -18 20 -21 8 -3
14 -15 14 -26 0 -14 4 -19 12 -14 8 5 9 2 5 -9 -4 -10 -2 -17 4 -17 6 0 9 -6
6 -13 -3 -8 7 -21 24 -31 16 -10 27 -22 23 -27 -3 -5 -2 -15 4 -22 5 -7 15
-33 22 -59 11 -42 14 -46 31 -35 11 7 19 16 19 21 0 5 6 14 14 20 8 6 17 25
20 41 8 48 72 297 84 328 6 15 16 27 21 27 5 0 10 -72 12 -160 3 -120 7 -162
18 -172 12 -11 13 -10 6 2 -6 12 -5 13 5 3 7 -7 16 -41 18 -75 5 -64 5 -72 0
-168 -2 -34 4 -78 16 -115 23 -74 105 -286 116 -300 4 -5 11 -21 15 -34 4 -14
21 -54 38 -90 83 -181 163 -449 187 -631 7 -49 9 -124 5 -180 -19 -282 -89
-491 -242 -723 -28 -42 -46 -77 -41 -77 6 0 36 16 66 36 191 128 503 447 644
660 63 95 144 257 178 354 7 19 16 44 20 55 5 11 17 47 28 80 83 260 127 538
126 805 0 273 -51 550 -136 739 -11 26 -27 62 -35 81 -28 65 -57 115 -139 240
-132 199 -285 364 -486 523 -58 45 -58 49 -19 194 44 165 51 217 51 374 0 170
-15 265 -65 414 -44 132 -91 233 -173 378 -34 60 -62 120 -62 135 0 17 14 40
39 67 39 40 52 57 162 218 63 92 99 165 99 199 0 18 -5 20 -64 17 -36 -2 -68
-1 -72 3 -7 7 12 68 73 236 31 85 55 222 40 222 -4 0 -14 -12 -23 -27z m-380
-610 c-72 -88 -158 -171 -209 -199 -27 -15 -126 -53 -219 -85 -92 -32 -173
-62 -179 -68 -8 -8 10 -11 64 -11 140 0 272 -47 399 -140 110 -82 168 -158
223 -290 74 -178 75 -403 2 -582 -55 -134 -178 -285 -295 -362 -79 -52 -124
-70 -243 -97 -76 -17 -111 -20 -202 -15 -240 13 -397 75 -531 210 -88 88 -110
124 -160 261 -32 89 -32 90 -43 60 -7 -16 -17 -43 -23 -60 -23 -62 -119 -194
-189 -259 -129 -122 -239 -175 -423 -203 -181 -28 -366 3 -506 84 -83 49 -194
160 -243 243 -107 184 -127 441 -52 678 46 147 172 291 335 384 100 57 245 86
341 67 76 -15 98 -6 33 14 -28 8 -64 22 -80 30 -16 8 -90 36 -164 61 -230 80
-309 128 -383 238 -59 89 -59 122 2 79 83 -60 185 -100 616 -247 287 -98 399
-159 555 -300 41 -37 103 -102 138 -143 35 -42 66 -74 70 -71 4 3 28 30 53 60
117 141 280 269 435 342 85 40 261 110 414 163 148 52 284 110 357 152 36 21
80 46 97 55 49 29 54 5 10 -49z m-1335 -1612 c20 -22 51 -70 70 -106 l34 -67
-41 -82 c-79 -155 -104 -195 -123 -196 -3 0 -36 63 -73 141 l-67 141 27 46
c32 56 94 144 109 154 18 13 27 9 64 -31z m-724 -961 c3 -5 1 -10 -4 -10 -6 0
-11 5 -11 10 0 6 2 10 4 10 3 0 8 -4 11 -10z"/>
<path d="M9290 14534 c-159 -42 -286 -146 -358 -294 -55 -112 -72 -184 -72
-300 0 -246 124 -468 314 -560 94 -46 219 -80 293 -80 285 -1 553 223 598 500
7 47 16 106 20 132 3 27 12 49 21 52 8 3 63 6 121 7 128 1 133 -3 133 -99 0
-205 161 -442 365 -537 100 -47 191 -61 295 -46 171 25 277 77 379 186 110
118 188 333 178 490 -12 185 -129 387 -282 484 -91 58 -171 76 -330 75 -121
-1 -150 -5 -212 -26 -160 -55 -270 -153 -342 -304 -23 -49 -46 -96 -51 -104
-5 -11 -19 -14 -46 -10 -60 7 -144 6 -195 -4 l-46 -8 -21 69 c-41 133 -156
268 -277 324 -128 60 -363 85 -485 53z m321 -120 c119 -36 195 -89 258 -183
50 -75 69 -123 82 -206 12 -83 5 -167 -23 -250 -75 -222 -246 -343 -493 -348
-75 -2 -85 1 -157 37 -193 98 -298 260 -298 460 0 148 47 264 146 364 66 66
154 115 235 131 74 15 192 12 250 -5z m1522 -14 c90 -34 140 -66 196 -125 208
-219 156 -587 -107 -761 -181 -121 -389 -108 -569 35 -100 79 -159 200 -169
349 -8 105 4 167 50 265 44 97 116 167 221 217 95 46 113 49 230 45 61 -2 108
-10 148 -25z"/>
<path d="M9475 14147 c-57 -23 -75 -38 -102 -85 -23 -39 -28 -58 -27 -112 1
-95 43 -160 126 -194 144 -61 288 42 288 205 0 52 -44 132 -90 164 -46 32
-145 43 -195 22z"/>
<path d="M10792 14139 c-62 -31 -95 -85 -100 -165 -5 -81 1 -105 40 -150 41
-47 83 -64 153 -64 67 0 99 15 148 69 79 88 57 229 -49 300 -51 35 -134 39
-192 10z"/>
<path d="M11536 11489 c10 -11 12 -19 5 -23 -6 -4 -8 -12 -5 -20 3 -7 0 -25
-6 -40 -6 -17 -6 -25 0 -21 6 3 10 4 10 0 0 -11 -25 -50 -37 -58 -15 -10 -17
-47 -3 -47 14 0 13 -37 -1 -46 -8 -4 -7 -9 2 -15 11 -7 11 -9 -2 -9 -13 0 -16
-8 -13 -40 2 -22 0 -40 -5 -40 -10 0 -45 -80 -43 -96 1 -6 -9 -23 -23 -38 -14
-15 -25 -31 -25 -37 0 -5 -4 -9 -10 -9 -5 0 -10 -11 -10 -25 0 -14 -5 -25 -11
-25 -7 0 -9 -9 -6 -21 5 -18 2 -20 -19 -16 -23 4 -31 -10 -25 -45 0 -5 -8 -8
-20 -8 -12 0 -19 -5 -17 -12 3 -7 -5 -18 -16 -23 -12 -6 -21 -17 -21 -25 -1
-8 -6 -14 -13 -12 -7 1 -12 -5 -12 -13 0 -8 -5 -15 -10 -15 -12 0 -30 -14 -67
-50 -14 -14 -29 -24 -34 -23 -5 2 -16 -8 -25 -22 -13 -20 -19 -23 -30 -14 -11
9 -13 9 -9 -2 3 -9 -10 -20 -38 -33 -24 -10 -48 -28 -53 -40 -5 -11 -20 -26
-33 -33 -13 -6 -28 -19 -33 -27 -5 -9 -15 -16 -22 -16 -7 0 -21 -9 -31 -20
-10 -11 -23 -17 -29 -13 -6 3 -8 3 -4 -2 14 -15 -40 -45 -81 -45 -29 0 -41 -4
-41 -14 0 -12 -14 -14 -64 -13 -35 1 -63 0 -61 -3 2 -4 -5 -11 -15 -18 -16
-10 -18 -9 -14 3 4 9 0 15 -9 15 -8 0 -17 -6 -20 -14 -3 -8 -15 -12 -29 -9
-27 5 -170 -22 -200 -38 -10 -5 -23 -7 -28 -4 -6 3 -10 0 -10 -8 0 -9 -10 -13
-32 -12 -18 2 -52 -1 -76 -5 -23 -4 -45 -4 -48 1 -3 5 -28 9 -57 9 -29 0 -68
3 -87 5 -19 3 -62 8 -94 11 -33 3 -68 10 -79 15 -12 7 -22 7 -31 0 -7 -6 -16
-8 -19 -5 -3 4 -46 -14 -94 -38 -175 -90 -287 -125 -492 -153 -196 -28 -519
-8 -604 37 -30 15 -31 -17 -3 -69 43 -78 207 -266 378 -433 114 -112 158 -161
158 -178 0 -12 -13 -49 -29 -81 -17 -32 -39 -93 -50 -137 -11 -43 -27 -84 -36
-90 -8 -6 -56 -19 -106 -28 -161 -30 -343 -98 -449 -169 -103 -69 -214 -202
-152 -183 16 5 173 44 267 66 22 5 150 19 285 31 302 27 306 26 395 -68 l62
-65 7 62 c9 79 36 110 96 110 65 0 83 -13 162 -117 22 -29 44 -53 48 -53 4 0
10 27 13 61 4 44 11 67 28 85 31 33 93 49 130 34 41 -17 49 -30 60 -101 6 -35
13 -66 15 -69 6 -5 27 19 82 94 20 27 52 54 80 68 45 22 57 23 282 23 226 0
237 -1 282 -24 45 -22 95 -69 129 -120 20 -32 39 -20 39 24 0 49 18 82 55 100
42 19 78 19 115 0 37 -19 46 -36 55 -102 4 -29 11 -55 15 -58 5 -3 29 24 55
59 25 36 61 74 79 86 33 20 88 26 121 14 25 -10 45 -58 45 -108 0 -54 17 -69
39 -35 9 13 35 45 59 71 62 66 104 74 332 60 97 -7 221 -20 275 -31 110 -21
298 -56 359 -67 35 -6 37 -5 28 12 -34 62 -114 131 -225 193 -52 29 -220 85
-352 116 -157 38 -163 41 -191 104 -13 29 -24 59 -24 66 0 7 -13 39 -30 71
-16 32 -30 68 -30 79 0 12 18 41 40 65 66 74 172 237 233 360 99 200 147 420
147 667 0 178 -22 287 -85 418 -24 50 -55 118 -69 152 -14 35 -37 86 -49 115
-33 74 -52 120 -87 215 -25 65 -35 81 -50 80 -17 -1 -18 -3 -4 -18z m-29 -191
c-3 -8 -6 -5 -6 6 -1 11 2 17 5 13 3 -3 4 -12 1 -19z m-796 -1934 c25 -23 42
-80 35 -117 -11 -56 -120 -276 -137 -277 -25 0 -81 124 -86 194 -10 120 60
235 135 222 19 -3 43 -13 53 -22z m332 2 c14 -13 35 -43 47 -66 35 -69 25
-138 -36 -258 -59 -116 -79 -127 -111 -60 -34 70 -60 143 -73 201 -11 47 -10
61 4 99 38 99 112 136 169 84z m-1826 -6 c69 -41 69 -103 0 -256 -24 -54 -47
-110 -50 -124 -19 -71 -47 -64 -91 23 -42 83 -47 173 -14 254 48 117 88 144
155 103z m335 -7 c63 -68 63 -114 1 -270 -51 -131 -62 -147 -87 -137 -41 16
-102 188 -91 257 9 54 40 125 67 154 30 32 77 30 110 -4z m1805 14 c36 -20 63
-63 74 -120 14 -67 -2 -121 -61 -214 -41 -65 -74 -82 -86 -45 -3 9 -26 69 -50
132 -24 63 -44 121 -44 128 0 21 30 75 58 105 28 30 71 35 109 14z m-1474 -21
c42 -39 60 -85 61 -156 1 -57 -4 -76 -37 -143 -52 -105 -62 -103 -122 26 -69
144 -71 220 -10 281 24 24 78 20 108 -8z"/>
<path d="M8895 8263 c-106 -11 -210 -66 -288 -152 -53 -60 -112 -172 -128
-246 -7 -32 -13 -276 -16 -686 -6 -733 -5 -740 72 -896 66 -134 147 -201 284
-233 63 -15 145 -8 198 16 21 10 68 41 104 71 36 29 71 53 77 53 12 0 22 -24
22 -54 0 -12 7 -32 16 -44 13 -19 24 -22 84 -22 37 0 74 2 82 5 11 4 12 106
10 568 -3 372 -7 566 -14 575 -8 9 -61 12 -222 10 l-211 -3 -3 -126 c-3 -143
-6 -139 84 -139 24 0 47 -6 54 -15 20 -24 9 -469 -13 -517 -66 -145 -272 -110
-306 53 -8 40 -11 242 -9 705 3 713 1 685 65 746 83 79 222 57 266 -42 7 -14
14 -111 17 -225 l5 -200 128 -3 c76 -1 135 2 147 8 19 10 20 21 20 188 0 113
-5 201 -14 243 -36 166 -150 301 -290 343 -55 17 -160 26 -221 19z"/>
<path d="M10565 8264 c-66 -9 -138 -38 -184 -73 -105 -79 -190 -210 -211 -324
-7 -34 -9 -311 -8 -738 l3 -684 24 -65 c65 -176 148 -264 294 -312 128 -41
252 -30 364 34 112 63 203 202 242 369 7 29 11 283 11 715 1 743 3 714 -67
844 -59 110 -151 191 -247 216 -56 15 -174 25 -221 18z m100 -295 c54 -15 104
-54 124 -98 14 -32 16 -105 16 -701 0 -663 0 -665 -22 -705 -12 -22 -37 -56
-57 -74 -32 -31 -43 -35 -89 -35 -71 -1 -126 36 -162 107 l-25 50 6 661 c3
364 10 675 15 692 11 37 68 96 100 105 36 10 50 10 94 -2z"/>
<path d="M11362 8253 c-36 -3 -55 -9 -59 -20 -7 -18 25 -334 47 -463 10 -58
35 -235 51 -355 5 -38 13 -99 19 -135 5 -36 14 -103 19 -150 10 -83 15 -114
45 -325 13 -97 24 -190 47 -425 6 -63 17 -155 23 -205 l12 -90 149 -3 c112 -2
150 1 157 10 4 7 8 40 8 73 0 55 27 292 50 430 9 56 25 190 34 280 12 129 62
432 82 499 5 15 8 16 19 5 12 -14 23 -63 85 -399 17 -91 33 -174 35 -185 3
-11 14 -83 25 -160 11 -77 26 -183 34 -235 7 -52 19 -140 26 -195 7 -55 14
-105 15 -111 5 -16 112 -26 198 -18 l75 7 5 46 c3 25 12 98 20 161 9 63 26
203 37 310 12 107 30 240 40 295 10 55 26 141 34 190 8 50 24 144 36 210 11
66 24 156 29 200 24 210 79 593 92 645 17 66 12 99 -17 110 -43 17 -190 13
-208 -6 -9 -8 -16 -16 -16 -17 -2 -19 -22 -195 -30 -262 -10 -87 -45 -311 -74
-485 -9 -47 -18 -107 -21 -135 -3 -27 -10 -79 -16 -115 -5 -36 -18 -139 -29
-230 -27 -213 -30 -230 -44 -230 -17 0 -28 56 -87 480 -10 74 -24 180 -29 235
-14 129 -46 358 -65 460 -9 44 -24 129 -35 189 -11 60 -22 111 -26 115 -11 11
-147 2 -160 -11 -7 -7 -26 -92 -42 -188 -28 -165 -36 -217 -62 -415 -6 -44
-18 -116 -25 -160 -8 -44 -17 -98 -20 -120 -9 -64 -23 -148 -55 -350 -30 -182
-45 -245 -59 -245 -6 0 -30 214 -52 445 -4 50 -15 140 -23 200 -16 114 -45
352 -72 585 -22 194 -29 239 -40 250 -11 11 -113 19 -182 13z"/>
<path d="M6731 8232 c-8 -15 -11 -337 -11 -1085 0 -923 2 -1066 15 -1077 20
-16 553 -8 609 9 85 27 197 135 261 252 65 120 105 350 85 487 -11 74 -30 154
-45 197 -17 46 -79 122 -125 155 -71 50 -72 67 -12 137 59 69 62 74 97 178 23
66 29 102 33 209 5 152 -5 211 -55 314 -42 85 -119 162 -208 207 l-60 30 -287
4 c-279 3 -286 3 -297 -17z m454 -248 c50 -7 98 -35 127 -74 42 -57 60 -220
38 -346 -19 -104 -44 -151 -103 -188 -42 -26 -202 -30 -217 -6 -6 9 -10 139
-10 304 0 333 0 332 77 322 24 -3 63 -9 88 -12z m69 -893 c39 -18 49 -30 75
-84 37 -77 49 -203 33 -342 -25 -217 -99 -315 -244 -323 -59 -4 -71 -1 -83 14
-12 16 -14 83 -15 370 0 361 1 372 40 388 29 11 149 -3 194 -23z"/>
<path d="M7907 8243 c-3 -5 -8 -490 -11 -1079 -6 -967 -5 -1072 9 -1084 12
-10 46 -12 141 -7 69 3 128 8 132 12 4 4 7 491 7 1083 l0 1077 -137 3 c-75 1
-139 -1 -141 -5z"/>
<path d="M13081 8228 c-4 -13 -11 -499 -14 -1080 -6 -1036 -6 -1058 13 -1068
12 -7 151 -9 392 -8 l373 3 3 134 c2 90 -1 138 -9 147 -9 12 -47 13 -208 8
-130 -4 -205 -2 -223 5 l-28 10 -2 933 -3 933 -143 3 c-140 3 -142 2 -151 -20z"/>
<path d="M8386 5596 c-54 -20 -106 -65 -141 -121 -26 -41 -30 -58 -30 -114 1
-75 15 -108 70 -163 71 -70 156 -93 243 -64 57 19 85 45 76 70 -6 15 -14 17
-48 11 -115 -17 -148 -17 -183 2 -109 58 -106 225 6 300 46 31 101 30 160 -4
86 -48 115 -1 33 55 -58 39 -127 50 -186 28z"/>
<path d="M10039 5602 c-35 -9 -96 -52 -110 -78 -15 -29 -15 -88 0 -117 16 -29
70 -61 131 -77 72 -18 99 -31 105 -51 17 -54 -33 -85 -121 -76 -31 3 -66 13
-79 21 -22 14 -25 14 -39 0 -21 -21 -20 -27 7 -52 29 -27 77 -42 137 -42 113
0 170 45 170 134 0 67 -20 87 -130 130 -90 36 -120 57 -120 83 1 59 85 81 162
42 l41 -21 20 21 c17 17 18 22 7 36 -31 37 -124 61 -181 47z"/>
<path d="M7614 5585 c-13 -32 4 -45 59 -45 86 0 87 -3 87 -218 0 -116 4 -183
11 -187 5 -4 21 -4 35 -1 l24 6 0 184 c0 137 3 186 13 194 7 6 37 12 67 14 49
3 55 5 58 27 2 13 -2 28 -10 32 -7 5 -86 9 -176 9 -135 0 -164 -3 -168 -15z"/>
<path d="M9000 5578 c-84 -48 -140 -139 -140 -226 1 -47 32 -118 73 -160 34
-35 120 -72 168 -72 48 0 137 29 167 55 25 22 27 28 26 100 -1 84 -9 97 -53
86 -24 -7 -26 -12 -29 -69 -4 -78 -20 -92 -110 -92 -81 0 -118 19 -143 73 -42
94 -5 207 83 253 43 23 110 18 152 -11 44 -30 40 -29 60 -9 24 23 20 31 -31
64 -42 26 -57 30 -118 29 -51 0 -79 -6 -105 -21z"/>
<path d="M10483 5589 c-6 -6 -8 -19 -6 -30 4 -15 14 -19 52 -19 26 0 56 -7 69
-16 21 -15 22 -20 22 -198 0 -181 0 -184 22 -189 44 -12 48 4 48 192 0 97 4
181 8 188 4 6 34 13 67 15 59 3 60 3 60 33 l0 30 -165 3 c-111 2 -169 -1 -177
-9z"/>
<path d="M11230 5584 c-94 -41 -150 -127 -150 -231 0 -224 297 -317 435 -136
100 132 57 286 -102 367 -40 20 -136 20 -183 0z m169 -64 c57 -32 81 -78 81
-152 0 -111 -56 -168 -164 -168 -103 0 -162 65 -154 171 9 131 132 208 237
149z"/>
<path d="M11864 5587 c-2 -7 -3 -111 -2 -232 l3 -220 24 -3 c33 -5 42 8 46 69
1 30 3 60 4 67 1 9 18 12 63 10 l63 -3 41 -68 c45 -75 57 -87 92 -87 30 0 38
24 18 54 -52 80 -58 97 -41 120 62 84 65 90 65 133 0 69 -43 131 -109 159 -45
19 -259 20 -267 1z m270 -73 c19 -20 26 -37 26 -66 0 -78 -40 -108 -144 -108
-53 0 -67 3 -75 18 -11 21 -9 151 3 170 5 8 35 12 85 12 71 0 81 -2 105 -26z"/>
<path d="M12550 5581 c-7 -13 -9 -98 -8 -238 l3 -218 145 -3 c173 -3 190 0
190 33 0 14 -3 25 -7 26 -5 0 -57 2 -118 5 -60 3 -116 7 -122 9 -9 3 -13 25
-13 64 0 71 0 71 120 71 92 0 115 10 108 47 -3 16 -18 19 -113 23 l-110 5 -3
55 c-4 75 5 80 141 80 l108 0 -3 28 -3 27 -152 3 c-143 2 -153 1 -163 -17z"/>
</g>
</svg>
